
<svg width="113" height="113" viewBox="0 0 113 113" fill="none" xmlns="http://www.w3.org/2000/svg">
<path d="M0.496628 0.12915H16.5092V16.1417H0.496628V0.12915ZM32.5217 32.1543H16.5092V16.1417H32.5217V32.1543ZM48.5343 48.1668H32.5217V32.1543H48.5343V48.1668ZM64.5469 48.1668H48.5343V64.1794H32.5217V80.1919H16.5092V96.2045H0.496628V112.217H16.5092V96.2045H32.5217V80.1919H48.5343V64.1794H64.5469V80.1919H80.5594V96.2045H96.572V112.217H112.585V96.2045H96.572V80.1919H80.5594V64.1794H64.5469V48.1668ZM80.5594 32.1543V48.1668H64.5469V32.1543H80.5594ZM96.572 16.1417V32.1543H80.5594V16.1417H96.572ZM96.572 16.1417V0.12915H112.585V16.1417H96.572Z" fill="#545454"/>
</svg>
