
<svg width="216" height="216" viewBox="0 0 216 216" fill="none" xmlns="http://www.w3.org/2000/svg">
<path d="M43.0721 0H129.216V21.536H43.0721V0ZM21.536 43.0721V21.536H43.0721V43.0721H21.536ZM21.536 129.216H0V43.0721H21.536V129.216ZM43.0721 150.752H21.536V129.216H43.0721V150.752ZM129.216 150.752V172.288H43.0721V150.752H129.216ZM150.752 129.216H129.216V150.752H150.752V172.288H172.288V193.824H193.824V215.36H215.36V193.824H193.824V172.288H172.288V150.752H150.752V129.216ZM150.752 43.0721H172.288V129.216H150.752V43.0721ZM150.752 43.0721V21.536H129.216V43.0721H150.752Z" fill="#D4D8DD"/>
</svg>
